<?xml version="1.0" standalone="no"?><!DOCTYPE svg PUBLIC "-//W3C//DTD SVG 1.1//EN" "http://www.w3.org/Graphics/SVG/1.1/DTD/svg11.dtd"><svg t="1658984308727" class="icon" viewBox="0 0 1075 1024" version="1.1" xmlns="http://www.w3.org/2000/svg" p-id="2010" xmlns:xlink="http://www.w3.org/1999/xlink" width="67.1875" height="64"><defs><style type="text/css"></style></defs><path d="M401.822785 622.177215m-401.822785 0a401.822785 401.822785 0 1 0 803.64557 0 401.822785 401.822785 0 1 0-803.64557 0Z" fill="#399396" p-id="2011" data-spm-anchor-id="a313x.7781069.0.i3" class=""></path><path d="M622.177215 401.822785h51.848101v77.772152h-51.848101z" fill="#87c38f" p-id="2012" data-spm-anchor-id="a313x.7781069.0.i4" class="selected"></path><path d="M959.189873 531.443038v285.164557H337.012658V544.405063l-116.658228-116.658228L648.101266 0l116.658228 116.658228h194.430379v194.43038l116.658228 116.658227zM596.253165 764.759494h103.696202V609.21519h-103.696202v155.544304z m-207.392406 0h155.544304V557.367089h207.392405v207.392405h155.544304V479.594937L648.101266 220.35443 388.860759 490.392304V764.759494z m518.481013-596.253165h-90.734177l90.734177 90.734177v-90.734177zM648.101266 90.734177L298.126582 427.746835l38.886076 38.886076 311.088608-311.088607 311.088607 311.088607 38.886076-38.886076z" fill="#040405" p-id="2013"></path></svg>