<?xml version="1.0" standalone="no"?><!DOCTYPE svg PUBLIC "-//W3C//DTD SVG 1.1//EN" "http://www.w3.org/Graphics/SVG/1.1/DTD/svg11.dtd"><svg t="1658984154483" class="icon" viewBox="0 0 1264 1024" version="1.1" xmlns="http://www.w3.org/2000/svg" p-id="4185" data-spm-anchor-id="a313x.7781069.0.i7" xmlns:xlink="http://www.w3.org/1999/xlink" width="79" height="64"><defs><style type="text/css"></style></defs><path d="M466.823529 557.176471m-466.823529 0a466.823529 466.823529 0 1 0 933.647059 0 466.823529 466.823529 0 1 0-933.647059 0Z" fill="#399396" p-id="4186" data-spm-anchor-id="a313x.7781069.0.i5" class=""></path><path d="M1204.705882 722.823529H301.176471V135.529412l105.411764-135.529412h752.941177l105.411764 135.529412v587.294117h-60.235294z m-391.529411-60.235294V512h-60.235295v150.588235h60.235295z m-271.058824 0h150.588235V451.764706h180.705883v210.823529h150.588235V180.705882H542.117647v481.882353zM361.411765 165.647059v496.941176h120.470588V165.647059l-60.235294-75.294118z m108.423529-105.411765l63.247059 60.235294h499.952941l63.247059-60.235294H469.835294zM1204.705882 165.647059l-60.235294-75.294118-60.235294 75.294118v496.941176h120.470588V165.647059z" fill="#040405" p-id="4187"></path><path d="M632.470588 271.058824h60.235294v90.352941h-60.235294v-90.352941z m120.470588 0h60.235295v90.352941h-60.235295v-90.352941z m120.470589 0h60.235294v90.352941h-60.235294v-90.352941z" fill="#87c38f" p-id="4188" data-spm-anchor-id="a313x.7781069.0.i6" class=""></path></svg>