<?xml version="1.0" standalone="no"?><!DOCTYPE svg PUBLIC "-//W3C//DTD SVG 1.1//EN" "http://www.w3.org/Graphics/SVG/1.1/DTD/svg11.dtd"><svg t="1658984196394" class="icon" viewBox="0 0 1024 1024" version="1.1" xmlns="http://www.w3.org/2000/svg" p-id="1758" xmlns:xlink="http://www.w3.org/1999/xlink" width="64" height="64"><defs><style type="text/css"></style></defs><path d="M404.54321 632.098765m-391.901235 0a391.901235 391.901235 0 1 0 783.802469 0 391.901235 391.901235 0 1 0-783.802469 0Z" fill="#399396" p-id="1759" data-spm-anchor-id="a313x.7781069.0.i0" class=""></path><path d="M758.518519 568.888889v-101.135803l139.061728-75.851851v101.135802zM455.111111 417.185185l88.493827 50.567901v176.987655l-88.493827-50.567901V417.185185z" fill="#87c38f" p-id="1760" data-spm-anchor-id="a313x.7781069.0.i1" class="selected"></path><path d="M670.024691 771.160494L328.691358 581.530864V202.271605L670.024691 0l341.333334 202.271605v379.259259z m290.765432-214.91358V265.481481L695.308642 403.456v288.970272z m-581.530864 0l265.481482 136.154074V404.54321L379.259259 265.481481zM670.024691 63.209877L404.54321 214.91358l268.313284 139.061729h5.676247L935.506173 214.91358z" fill="#040405" p-id="1761"></path></svg>